<svg viewBox="0 0 396 447" xmlns="http://www.w3.org/2000/svg">
  <defs></defs>
  <path d="M 379.162 99.679 L 215.302 4.964 C 204.884 -1.192 191.622 -1.192 181.204 4.964 L 17.344 99.679 C 6.926 105.835 0.293 117.202 0.293 129.042 L 0.293 318.472 C 0.293 330.784 6.921 342.152 17.344 347.835 L 181.204 442.55 C 186.414 445.39 192.095 447.284 198.255 447.284 C 204.411 447.284 210.095 445.862 215.306 442.55 L 379.166 347.835 C 389.584 341.679 396.217 330.312 396.217 318.472 L 396.217 129.042 C 396.213 116.726 389.584 105.835 379.162 99.679 Z M 71.332 222.809 C 71.332 221.864 71.804 220.914 72.753 220.442 L 79.859 215.707 C 80.332 215.235 81.281 215.235 82.226 215.235 L 115.378 223.758 C 116.8 224.231 117.273 225.18 117.273 226.125 C 117.273 227.547 116.327 228.492 115.378 228.965 L 90.276 237.488 L 89.331 237.488 C 88.858 237.488 87.909 237.488 87.436 237.016 L 72.28 225.176 C 71.808 224.703 71.331 223.758 71.331 222.809 Z M 107.324 265.434 L 89.328 271.59 L 88.382 271.59 C 86.96 271.59 86.015 270.645 85.542 269.696 C 85.07 268.274 86.015 266.379 87.437 265.907 L 105.433 259.75 C 106.855 259.278 108.749 260.223 109.222 261.645 C 109.695 263.067 108.745 264.957 107.324 265.434 Z M 131.953 268.274 L 113.957 274.43 L 113.011 274.43 C 111.589 274.43 110.644 273.485 110.171 272.535 C 109.699 271.114 110.644 269.219 112.066 268.746 L 130.062 262.59 C 131.484 262.117 133.378 263.063 133.851 264.485 C 134.32 266.379 133.374 267.801 131.953 268.274 Z M 322.803 198.184 C 320.908 202.445 317.119 205.289 312.857 206.707 L 310.963 207.18 L 155.153 259.274 L 154.207 259.274 L 153.735 259.274 L 98.801 247.434 C 97.379 246.961 96.906 246.012 96.434 245.067 C 96.434 243.645 96.906 242.699 98.328 242.227 L 181.68 214.286 L 151.844 184.923 C 151.371 184.45 150.899 183.501 150.899 183.028 C 150.899 182.083 151.371 181.606 151.844 181.134 L 160.84 173.556 C 161.313 173.083 162.262 172.61 163.207 173.083 L 245.137 193.446 L 300.543 175.454 L 302.438 174.981 C 304.332 174.509 306.227 174.036 307.649 174.036 C 314.754 174.036 321.383 178.77 323.751 185.876 C 325.169 189.661 324.696 194.396 322.802 198.185 Z"></path>
</svg>